HIERARCHY
ROOT Hips
{
	OFFSET 0.00000 0.00000 0.00000
	CHANNELS 6 Xposition Yposition Zposition Yrotation Zrotation Xrotation 
	JOINT Lumbar
	{
		OFFSET 0 0 0
		CHANNELS 3 Zrotation Xrotation Yrotation
		JOINT Neck
		{
			OFFSET 0.00 0.2701 0.00
			CHANNELS 3 Zrotation Xrotation Yrotation
			End Site
			{
				OFFSET 0.00 0.1379 0.00
			}
		}
		JOINT RightShoulder
		{
			OFFSET 0.0119 0.2289 0.1181
			CHANNELS 3 Zrotation Xrotation Yrotation
			JOINT RightElbow
			{
				OFFSET 0.00 -0.1475 0.00
				CHANNELS 2 Zrotation Yrotation
				JOINT RightWrist
				{
					OFFSET 0.00 -0.1605 0.00
					CHANNELS 2 Zrotation Xrotation
					End Site
					{
						OFFSET 0.0040 -0.1068 0.0006
					}
				}
			}
		}
		JOINT LeftShoulder
		{
			OFFSET 0.0119 0.2289 -0.1181
			CHANNELS 3 Zrotation Xrotation Yrotation
			JOINT LeftElbow
			{
				OFFSET 0.00 -0.1475 0.00
				CHANNELS 2 Zrotation Yrotation
				JOINT LeftWrist
				{
					OFFSET 0.00 -0.1605 0.00
					CHANNELS 2 Zrotation Xrotation
					End Site
					{
						OFFSET 0.0040 -0.1068 -0.0006
					}
				}
			}
		}
	}
	JOINT RightHip
	{
		OFFSET 0.0316 -0.0424 0.0458
		CHANNELS 3 Zrotation Xrotation Yrotation
		JOINT RightKnee
		{
			OFFSET 0.00 -0.2438 0.00
			CHANNELS 1 Zrotation
			JOINT RightAnkle
			{
				OFFSET 0.00 -0.2449 0.00
				CHANNELS 3 Zrotation Xrotation Yrotation
				End Site
				{
					OFFSET 0.1237 -0.0542 0.0051
				}
			}
		}
	}
	JOINT LeftHip
	{
		OFFSET 0.0316 -0.0424 -0.0458
		CHANNELS 3 Zrotation Xrotation Yrotation
		JOINT LeftKnee
		{
			OFFSET 0.00 -0.2438 0.00
			CHANNELS 1 Zrotation
			JOINT LeftAnkle
			{
				OFFSET 0.00 -0.2449 0.00
				CHANNELS 3 Zrotation Xrotation Yrotation
				End Site
				{
					OFFSET 0.1237 -0.0542 -0.0051
				}
			}
		}
	}
}
MOTION
Frames: 13
Frame Time: 0.02
0.85899 -0.1791 0.27713 539.57324 12.86196 -2.44637 0.18156 4.71934 -7.17022 -34.09461 4.35649 -2.11994 -16.20105 -2.68094 31.69038 116.0418 85.34932 6.47973 1.52411 -14.04612 7.82023 -18.13057 122.56317 -86.68117 8.90147 1.34841 51.68942 0.99096 -20.84419 -51.31541 -12.37962 -1.78658 -3.37504 73.86024 -5.64919 31.77769 -75.75862 -19.03023 1.68014 3.64749
0.85906 -0.17913 0.27715 539.58796 12.92094 -2.45435 0.2225 4.70359 -7.1379 -34.04027 4.41736 -2.11994 -16.11828 -2.76324 31.74653 116.03253 85.23437 6.33142 1.06205 -13.96052 7.86882 -18.15995 122.58577 -86.51248 8.86611 1.38423 51.63845 1.00941 -20.79029 -51.29941 -12.38852 -1.78922 -3.37702 73.8002 -5.63856 31.76609 -75.7448 -19.02484 1.68316 3.64902
0.85914 -0.17916 0.27716 539.60261 12.96431 -2.46046 0.26729 4.68285 -7.10026 -33.98514 4.48826 -2.11994 -16.00471 -2.91068 31.83665 116.03338 85.04651 6.10665 0.29612 -13.89254 7.82638 -18.1475 122.60642 -86.66437 8.95875 1.34384 51.61913 1.05486 -20.67095 -51.28762 -12.39968 -1.79498 -3.38108 73.76682 -5.64059 31.73358 -75.71504 -19.01662 1.68729 3.65106
0.85921 -0.1792 0.27718 539.61756 13.01289 -2.46749 0.3123 4.66439 -7.0655 -33.93042 4.55208 -2.11994 -15.90726 -3.02279 31.91351 116.02671 84.89182 5.90455 -0.30593 -13.82069 7.81669 -18.1542 122.62841 -86.70446 8.9995 1.32967 51.5875 1.08763 -20.58188 -51.2748 -12.40967 -1.79935 -3.38415 73.72283 -5.63763 31.71155 -75.69127 -19.00995 1.69084 3.65282
0.85928 -0.17923 0.27719 539.63048 13.0629 -2.47361 0.35637 4.64496 -7.02892 -33.87141 4.62732 -2.11994 -15.8018 -3.15557 31.98191 116.03215 84.73581 5.75122 -1.00888 -13.7327 7.84288 -18.15973 122.65111 -86.60362 9.01492 1.35042 51.5555 1.12089 -20.49232 -51.26161 -12.41963 -1.80311 -3.38709 73.68112 -5.63097 31.68528 -75.67466 -19.00205 1.695 3.65493
0.85935 -0.17926 0.27721 539.64786 13.10834 -2.48139 0.40067 4.62669 -6.99476 -33.82219 4.68107 -2.11994 -15.70529 -3.26225 32.07537 116.01499 84.56577 5.47976 -1.5774 -13.68104 7.77552 -18.15911 122.67045 -86.86018 9.10945 1.28335 51.52909 1.16012 -20.38739 -51.24907 -12.4304 -1.80905 -3.39092 73.63818 -5.63505 31.66307 -75.63889 -18.99607 1.69806 3.6564
0.8594 -0.17927 0.27722 539.67877 13.1498 -2.49456 0.44225 4.61328 -6.96922 -33.80683 4.67045 -2.11994 -15.64168 -3.27949 32.23378 115.9314 84.37387 4.89216 -1.69392 -13.73772 7.43871 -18.13694 122.6863 -88.17191 9.43756 0.95668 51.50394 1.20801 -20.25849 -51.23507 -12.44323 -1.8204 -3.39672 73.57937 -5.66758 31.65505 -75.55094 -18.99618 1.69762 3.65586
0.85944 -0.17927 0.27723 539.71409 13.18723 -2.50948 0.48332 4.60125 -6.9462 -33.80075 4.63821 -2.11994 -15.58787 -3.26904 32.41537 115.82511 84.17083 4.19074 -1.66686 -13.82831 7.01598 -18.11209 122.69765 -89.80982 9.83394 0.54973 51.4833 1.26131 -20.11591 -51.22149 -12.45681 -1.83385 -3.40336 73.51832 -5.71021 31.65214 -75.4446 -18.9983 1.69602 3.65467
0.85948 -0.17927 0.27725 539.74682 13.22441 -2.52347 0.52508 4.58847 -6.92154 -33.7868 4.61739 -2.11994 -15.52903 -3.27264 32.58365 115.73015 83.97356 3.54647 -1.71091 -13.89488 6.65513 -18.09887 122.70713 -91.1995 10.16732 0.20367 51.46346 1.3132 -19.97755 -51.2086 -12.46994 -1.8463 -3.40964 73.46074 -5.74706 31.64835 -75.34836 -18.99942 1.69501 3.65383
0.85953 -0.17927 0.27726 539.78212 13.26996 -2.53799 0.56509 4.57607 -6.89861 -33.78832 4.59015 -2.11994 -15.47162 -3.27202 32.76498 115.63094 83.77028 2.87404 -1.74094 -13.99722 6.19798 -18.04276 122.73266 -93.00846 10.63465 -0.24463 51.43261 1.36187 -19.84459 -51.19211 -12.48367 -1.85908 -3.41592 73.39346 -5.78935 31.63803 -75.24399 -19.0008 1.69375 3.65278
0.85956 -0.17927 0.27727 539.81297 13.29701 -2.55181 0.60868 4.56322 -6.87298 -33.75966 4.57109 -2.11994 -15.41389 -3.27306 32.92401 115.53547 83.57838 2.23744 -1.76183 -14.03439 5.91814 -18.0727 122.72427 -94.03482 10.8444 -0.50232 51.42561 1.41782 -19.69893 -51.18326 -12.49622 -1.87158 -3.42235 73.34603 -5.82257 31.64242 -75.15273 -19.00216 1.69276 3.65201
0.85957 -0.17929 0.27728 539.83153 13.27725 -2.56347 0.6608 4.54917 -6.83733 -33.64712 4.57932 -2.11994 -15.35341 -3.28273 33.01718 115.45217 83.4164 1.70065 -1.7941 -13.87013 6.18481 -18.3688 122.61846 -92.66742 10.26568 -0.17646 51.48049 1.4955 -19.51394 -51.19451 -12.50583 -1.88324 -3.42935 73.34879 -5.82791 31.68954 -75.0993 -19.00309 1.69263 3.65206
0.85957 -0.17932 0.27728 539.84522 13.23849 -2.57435 0.71673 4.53456 -6.79928 -33.50358 4.59668 -2.11994 -15.29234 -3.29517 33.0866 115.37398 83.26751 1.20923 -1.82031 -13.64143 6.62713 -18.74687 122.47957 -90.52645 9.43532 0.3378 51.55952 1.5796 -19.31854 -51.21356 -12.51411 -1.89442 -3.4364 73.37242 -5.82376 31.75076 -75.06034 -19.00394 1.69285 3.65241
